<svg width="984" height="390" viewBox="0 0 984 390" fill="none" xmlns="http://www.w3.org/2000/svg">
<rect width="984" height="390" fill="white"/>
<path d="M43.7334 52V338" stroke="#E0E0E0"/>
<path d="M171.81 52V338" stroke="#E0E0E0"/>
<path d="M299.886 52V338" stroke="#E0E0E0"/>
<path d="M427.962 52V338" stroke="#E0E0E0"/>
<path d="M556.038 52V338" stroke="#E0E0E0"/>
<path d="M684.114 52V338" stroke="#E0E0E0"/>
<path d="M812.19 52V338" stroke="#E0E0E0"/>
<path d="M940.267 52V338" stroke="#E0E0E0"/>
<path d="M153.067 200.877H43.7334V338H153.067V200.877Z" fill="#25D366"/>
<path d="M284.267 52H174.934V338H284.267V52Z" fill="#CA5CB2"/>
<path d="M415.467 232.219H306.134V338H415.467V232.219Z" fill="#F9DC00"/>
<path d="M546.666 83.3425H437.333V338H546.666V83.3425Z" fill="#5687F2"/>
<path d="M677.867 122.521H568.533V338H677.867V122.521Z" fill="#4E865A"/>
<path d="M809.067 208.712H699.733V338H809.067V208.712Z" fill="#2CA9BC"/>
<path d="M940.267 251.808H830.934V338H940.267V251.808Z" fill="#A3A3A3"/>
<path d="M43.7334 338H940.267" stroke="black" stroke-width="2"/>
<path d="M43.7334 52V338" stroke="black" stroke-width="2"/>
<path d="M81.7493 349.273H82.8061V355.511C82.8061 356.068 82.7038 356.541 82.4993 356.93C82.2947 357.32 82.0064 357.615 81.6342 357.817C81.2621 358.018 80.8232 358.119 80.3175 358.119C79.8402 358.119 79.4155 358.033 79.0433 357.859C78.6712 357.683 78.3786 357.433 78.1655 357.109C77.9524 356.786 77.8459 356.401 77.8459 355.955H78.8857C78.8857 356.202 78.9467 356.418 79.0689 356.602C79.1939 356.784 79.3643 356.926 79.5803 357.028C79.7962 357.131 80.0419 357.182 80.3175 357.182C80.6214 357.182 80.88 357.118 81.093 356.99C81.3061 356.862 81.468 356.675 81.5788 356.428C81.6925 356.178 81.7493 355.872 81.7493 355.511V349.273ZM86.7138 358.153C86.299 358.153 85.9226 358.075 85.5845 357.919C85.2464 357.76 84.978 357.531 84.7791 357.233C84.5803 356.932 84.4808 356.568 84.4808 356.142C84.4808 355.767 84.5547 355.463 84.7024 355.23C84.8501 354.994 85.0476 354.81 85.2947 354.676C85.5419 354.543 85.8146 354.443 86.1129 354.378C86.4141 354.31 86.7166 354.256 87.0206 354.216C87.4183 354.165 87.7408 354.126 87.9879 354.101C88.2379 354.072 88.4197 354.026 88.5334 353.96C88.6499 353.895 88.7081 353.781 88.7081 353.619V353.585C88.7081 353.165 88.593 352.838 88.3629 352.605C88.1357 352.372 87.7905 352.256 87.3274 352.256C86.8473 352.256 86.4709 352.361 86.1982 352.571C85.9254 352.781 85.7337 353.006 85.6229 353.244L84.6683 352.903C84.8388 352.506 85.0661 352.196 85.3501 351.974C85.6371 351.75 85.9496 351.594 86.2876 351.506C86.6286 351.415 86.9638 351.369 87.2933 351.369C87.5036 351.369 87.745 351.395 88.0178 351.446C88.2933 351.494 88.5589 351.595 88.8146 351.749C89.0732 351.902 89.2876 352.134 89.4581 352.443C89.6286 352.753 89.7138 353.168 89.7138 353.688V358H88.7081V357.114H88.657C88.5888 357.256 88.4751 357.408 88.3161 357.57C88.157 357.732 87.9453 357.869 87.6811 357.983C87.4169 358.097 87.0945 358.153 86.7138 358.153ZM86.8672 357.25C87.2649 357.25 87.6001 357.172 87.8729 357.016C88.1484 356.859 88.3558 356.658 88.495 356.411C88.6371 356.163 88.7081 355.903 88.7081 355.631V354.71C88.6655 354.761 88.5717 354.808 88.4268 354.851C88.2848 354.891 88.12 354.926 87.9325 354.957C87.7479 354.986 87.5675 355.011 87.3913 355.034C87.218 355.054 87.0774 355.071 86.9695 355.085C86.7081 355.119 86.4638 355.175 86.2365 355.251C86.0121 355.325 85.8303 355.437 85.6911 355.588C85.5547 355.736 85.4865 355.937 85.4865 356.193C85.4865 356.543 85.6158 356.807 85.8743 356.986C86.1357 357.162 86.4666 357.25 86.8672 357.25ZM92.555 354.062V358H91.5494V351.455H92.521V352.477H92.6062C92.7596 352.145 92.9925 351.878 93.305 351.676C93.6175 351.472 94.021 351.369 94.5153 351.369C94.9585 351.369 95.3462 351.46 95.6786 351.642C96.011 351.821 96.2695 352.094 96.4542 352.46C96.6388 352.824 96.7312 353.284 96.7312 353.841V358H95.7255V353.909C95.7255 353.395 95.592 352.994 95.3249 352.707C95.0579 352.418 94.6914 352.273 94.2255 352.273C93.9045 352.273 93.6175 352.342 93.3647 352.482C93.1147 352.621 92.9173 352.824 92.7724 353.091C92.6275 353.358 92.555 353.682 92.555 354.062Z" fill="black"/>
<path d="M216.057 360V351.273H221.29V352.21H217.114V355.159H220.898V356.097H217.114V360H216.057ZM225.227 360.136C224.597 360.136 224.053 359.997 223.595 359.719C223.141 359.438 222.79 359.045 222.543 358.543C222.298 358.037 222.176 357.449 222.176 356.778C222.176 356.108 222.298 355.517 222.543 355.006C222.79 354.491 223.134 354.091 223.574 353.804C224.017 353.514 224.534 353.369 225.125 353.369C225.466 353.369 225.803 353.426 226.135 353.54C226.467 353.653 226.77 353.838 227.043 354.094C227.315 354.347 227.533 354.682 227.695 355.099C227.857 355.517 227.938 356.031 227.938 356.642V357.068H222.892V356.199H226.915C226.915 355.83 226.841 355.5 226.693 355.21C226.548 354.92 226.341 354.692 226.071 354.524C225.804 354.357 225.489 354.273 225.125 354.273C224.724 354.273 224.378 354.372 224.085 354.571C223.795 354.767 223.572 355.023 223.416 355.338C223.26 355.653 223.182 355.991 223.182 356.352V356.932C223.182 357.426 223.267 357.845 223.438 358.189C223.611 358.53 223.851 358.79 224.158 358.969C224.464 359.145 224.821 359.233 225.227 359.233C225.491 359.233 225.73 359.196 225.943 359.122C226.159 359.045 226.345 358.932 226.501 358.781C226.658 358.628 226.778 358.437 226.864 358.21L227.835 358.483C227.733 358.812 227.561 359.102 227.32 359.352C227.078 359.599 226.78 359.793 226.425 359.932C226.07 360.068 225.67 360.136 225.227 360.136ZM229.604 360V351.273H230.609V354.494H230.695C230.768 354.381 230.871 354.236 231.001 354.06C231.135 353.881 231.325 353.722 231.572 353.582C231.822 353.44 232.161 353.369 232.587 353.369C233.138 353.369 233.624 353.507 234.044 353.783C234.464 354.058 234.793 354.449 235.028 354.955C235.264 355.46 235.382 356.057 235.382 356.744C235.382 357.438 235.264 358.038 235.028 358.547C234.793 359.053 234.466 359.445 234.048 359.723C233.631 359.999 233.149 360.136 232.604 360.136C232.183 360.136 231.847 360.067 231.594 359.928C231.341 359.786 231.146 359.625 231.01 359.446C230.874 359.264 230.768 359.114 230.695 358.994H230.575V360H229.604ZM230.592 356.727C230.592 357.222 230.665 357.658 230.81 358.036C230.955 358.411 231.166 358.705 231.445 358.918C231.723 359.128 232.064 359.233 232.467 359.233C232.888 359.233 233.239 359.122 233.52 358.901C233.804 358.676 234.017 358.375 234.159 357.997C234.304 357.616 234.376 357.193 234.376 356.727C234.376 356.267 234.305 355.852 234.163 355.483C234.024 355.111 233.813 354.817 233.528 354.601C233.247 354.382 232.893 354.273 232.467 354.273C232.058 354.273 231.714 354.376 231.436 354.584C231.158 354.788 230.947 355.075 230.805 355.445C230.663 355.811 230.592 356.239 230.592 356.727Z" fill="black"/>
<path d="M352.106 351.273H353.367L356.333 358.517H356.435L359.401 351.273H360.662V360H359.674V353.369H359.589L356.861 360H355.907L353.18 353.369H353.094V360H352.106V351.273ZM364.571 360.153C364.156 360.153 363.78 360.075 363.442 359.919C363.104 359.76 362.835 359.531 362.637 359.233C362.438 358.932 362.338 358.568 362.338 358.142C362.338 357.767 362.412 357.463 362.56 357.23C362.708 356.994 362.905 356.81 363.152 356.676C363.399 356.543 363.672 356.443 363.97 356.378C364.271 356.31 364.574 356.256 364.878 356.216C365.276 356.165 365.598 356.126 365.845 356.101C366.095 356.072 366.277 356.026 366.391 355.96C366.507 355.895 366.566 355.781 366.566 355.619V355.585C366.566 355.165 366.45 354.838 366.22 354.605C365.993 354.372 365.648 354.256 365.185 354.256C364.705 354.256 364.328 354.361 364.056 354.571C363.783 354.781 363.591 355.006 363.48 355.244L362.526 354.903C362.696 354.506 362.923 354.196 363.208 353.974C363.494 353.75 363.807 353.594 364.145 353.506C364.486 353.415 364.821 353.369 365.151 353.369C365.361 353.369 365.602 353.395 365.875 353.446C366.151 353.494 366.416 353.595 366.672 353.749C366.931 353.902 367.145 354.134 367.316 354.443C367.486 354.753 367.571 355.168 367.571 355.688V360H366.566V359.114H366.514C366.446 359.256 366.333 359.408 366.173 359.57C366.014 359.732 365.803 359.869 365.539 359.983C365.274 360.097 364.952 360.153 364.571 360.153ZM364.725 359.25C365.122 359.25 365.458 359.172 365.73 359.016C366.006 358.859 366.213 358.658 366.352 358.411C366.494 358.163 366.566 357.903 366.566 357.631V356.71C366.523 356.761 366.429 356.808 366.284 356.851C366.142 356.891 365.977 356.926 365.79 356.957C365.605 356.986 365.425 357.011 365.249 357.034C365.075 357.054 364.935 357.071 364.827 357.085C364.566 357.119 364.321 357.175 364.094 357.251C363.869 357.325 363.688 357.437 363.548 357.588C363.412 357.736 363.344 357.937 363.344 358.193C363.344 358.543 363.473 358.807 363.732 358.986C363.993 359.162 364.324 359.25 364.725 359.25ZM369.407 360V353.455H370.378V354.443H370.447C370.566 354.119 370.782 353.857 371.094 353.655C371.407 353.453 371.759 353.352 372.151 353.352C372.225 353.352 372.317 353.354 372.428 353.357C372.539 353.359 372.623 353.364 372.68 353.369V354.392C372.645 354.384 372.567 354.371 372.445 354.354C372.326 354.334 372.199 354.324 372.066 354.324C371.748 354.324 371.464 354.391 371.214 354.524C370.966 354.655 370.77 354.837 370.626 355.07C370.483 355.3 370.412 355.562 370.412 355.858V360H369.407Z" fill="black"/>
<path d="M483.471 360H482.363L485.568 351.273H486.659L489.863 360H488.756L486.148 352.653H486.079L483.471 360ZM483.881 356.591H488.346V357.528H483.881V356.591ZM491.086 362.455V353.455H492.058V354.494H492.177C492.251 354.381 492.354 354.236 492.484 354.06C492.618 353.881 492.808 353.722 493.055 353.582C493.305 353.44 493.643 353.369 494.069 353.369C494.621 353.369 495.106 353.507 495.527 353.783C495.947 354.058 496.275 354.449 496.511 354.955C496.747 355.46 496.865 356.057 496.865 356.744C496.865 357.438 496.747 358.038 496.511 358.547C496.275 359.053 495.949 359.445 495.531 359.723C495.113 359.999 494.632 360.136 494.086 360.136C493.666 360.136 493.329 360.067 493.077 359.928C492.824 359.786 492.629 359.625 492.493 359.446C492.356 359.264 492.251 359.114 492.177 358.994H492.092V362.455H491.086ZM492.075 356.727C492.075 357.222 492.148 357.658 492.292 358.036C492.437 358.411 492.649 358.705 492.927 358.918C493.206 359.128 493.547 359.233 493.95 359.233C494.371 359.233 494.721 359.122 495.003 358.901C495.287 358.676 495.5 358.375 495.642 357.997C495.787 357.616 495.859 357.193 495.859 356.727C495.859 356.267 495.788 355.852 495.646 355.483C495.507 355.111 495.295 354.817 495.011 354.601C494.73 354.382 494.376 354.273 493.95 354.273C493.541 354.273 493.197 354.376 492.919 354.584C492.64 354.788 492.43 355.075 492.288 355.445C492.146 355.811 492.075 356.239 492.075 356.727ZM498.399 360V353.455H499.371V354.443H499.439C499.558 354.119 499.774 353.857 500.086 353.655C500.399 353.453 500.751 353.352 501.143 353.352C501.217 353.352 501.309 353.354 501.42 353.357C501.531 353.359 501.615 353.364 501.672 353.369V354.392C501.638 354.384 501.559 354.371 501.437 354.354C501.318 354.334 501.192 354.324 501.058 354.324C500.74 354.324 500.456 354.391 500.206 354.524C499.959 354.655 499.763 354.837 499.618 355.07C499.476 355.3 499.405 355.562 499.405 355.858V360H498.399Z" fill="black"/>
<path d="M617.144 351.273H618.201V357.511C618.201 358.068 618.098 358.541 617.894 358.93C617.689 359.32 617.401 359.615 617.029 359.817C616.657 360.018 616.218 360.119 615.712 360.119C615.235 360.119 614.81 360.033 614.438 359.859C614.066 359.683 613.773 359.433 613.56 359.109C613.347 358.786 613.24 358.401 613.24 357.955H614.28C614.28 358.202 614.341 358.418 614.463 358.602C614.588 358.784 614.759 358.926 614.975 359.028C615.191 359.131 615.436 359.182 615.712 359.182C616.016 359.182 616.275 359.118 616.488 358.99C616.701 358.862 616.863 358.675 616.973 358.428C617.087 358.178 617.144 357.872 617.144 357.511V351.273ZM624.307 357.324V353.455H625.313V360H624.307V358.892H624.239C624.086 359.224 623.847 359.507 623.523 359.74C623.199 359.97 622.79 360.085 622.296 360.085C621.887 360.085 621.523 359.996 621.205 359.817C620.887 359.635 620.637 359.362 620.455 358.999C620.273 358.632 620.182 358.17 620.182 357.614V353.455H621.188V357.545C621.188 358.023 621.321 358.403 621.588 358.688C621.858 358.972 622.202 359.114 622.62 359.114C622.87 359.114 623.124 359.05 623.382 358.922C623.644 358.794 623.863 358.598 624.039 358.334C624.218 358.07 624.307 357.733 624.307 357.324ZM628.161 356.062V360H627.155V353.455H628.126V354.477H628.212C628.365 354.145 628.598 353.878 628.911 353.676C629.223 353.472 629.626 353.369 630.121 353.369C630.564 353.369 630.952 353.46 631.284 353.642C631.616 353.821 631.875 354.094 632.06 354.46C632.244 354.824 632.337 355.284 632.337 355.841V360H631.331V355.909C631.331 355.395 631.197 354.994 630.93 354.707C630.663 354.418 630.297 354.273 629.831 354.273C629.51 354.273 629.223 354.342 628.97 354.482C628.72 354.621 628.523 354.824 628.378 355.091C628.233 355.358 628.161 355.682 628.161 356.062Z" fill="black"/>
<path d="M749.73 349.273H750.787V355.511C750.787 356.068 750.684 356.541 750.48 356.93C750.275 357.32 749.987 357.615 749.615 357.817C749.243 358.018 748.804 358.119 748.298 358.119C747.821 358.119 747.396 358.033 747.024 357.859C746.652 357.683 746.359 357.433 746.146 357.109C745.933 356.786 745.826 356.401 745.826 355.955H746.866C746.866 356.202 746.927 356.418 747.049 356.602C747.174 356.784 747.345 356.926 747.561 357.028C747.777 357.131 748.022 357.182 748.298 357.182C748.602 357.182 748.86 357.118 749.074 356.99C749.287 356.862 749.449 356.675 749.559 356.428C749.673 356.178 749.73 355.872 749.73 355.511V349.273ZM756.893 355.324V351.455H757.899V358H756.893V356.892H756.825C756.672 357.224 756.433 357.507 756.109 357.74C755.785 357.97 755.376 358.085 754.882 358.085C754.473 358.085 754.109 357.996 753.791 357.817C753.473 357.635 753.223 357.362 753.041 356.999C752.859 356.632 752.768 356.17 752.768 355.614V351.455H753.774V355.545C753.774 356.023 753.907 356.403 754.174 356.688C754.444 356.972 754.788 357.114 755.206 357.114C755.456 357.114 755.71 357.05 755.968 356.922C756.23 356.794 756.449 356.598 756.625 356.334C756.804 356.07 756.893 355.733 756.893 355.324ZM760.746 349.273V358H759.741V349.273H760.746Z" fill="black"/>
<path d="M876.218 360H875.11L878.314 351.273H879.405L882.61 360H881.502L878.894 352.653H878.825L876.218 360ZM876.627 356.591H881.093V357.528H876.627V356.591ZM887.958 357.324V353.455H888.963V360H887.958V358.892H887.889C887.736 359.224 887.497 359.507 887.173 359.74C886.85 359.97 886.441 360.085 885.946 360.085C885.537 360.085 885.173 359.996 884.855 359.817C884.537 359.635 884.287 359.362 884.105 358.999C883.923 358.632 883.833 358.17 883.833 357.614V353.455H884.838V357.545C884.838 358.023 884.972 358.403 885.239 358.688C885.509 358.972 885.852 359.114 886.27 359.114C886.52 359.114 886.774 359.05 887.033 358.922C887.294 358.794 887.513 358.598 887.689 358.334C887.868 358.07 887.958 357.733 887.958 357.324ZM893.447 362.591C892.961 362.591 892.544 362.528 892.194 362.403C891.845 362.281 891.554 362.119 891.321 361.918C891.091 361.719 890.907 361.506 890.771 361.278L891.572 360.716C891.663 360.835 891.778 360.972 891.917 361.125C892.057 361.281 892.247 361.416 892.488 361.53C892.733 361.646 893.052 361.705 893.447 361.705C893.976 361.705 894.412 361.577 894.756 361.321C895.099 361.065 895.271 360.665 895.271 360.119V358.79H895.186C895.112 358.909 895.007 359.057 894.871 359.233C894.737 359.406 894.544 359.561 894.291 359.697C894.041 359.831 893.703 359.898 893.277 359.898C892.748 359.898 892.274 359.773 891.854 359.523C891.436 359.273 891.105 358.909 890.861 358.432C890.619 357.955 890.498 357.375 890.498 356.693C890.498 356.023 890.616 355.439 890.852 354.942C891.088 354.442 891.416 354.055 891.836 353.783C892.257 353.507 892.743 353.369 893.294 353.369C893.72 353.369 894.058 353.44 894.308 353.582C894.561 353.722 894.754 353.881 894.888 354.06C895.024 354.236 895.129 354.381 895.203 354.494H895.305V353.455H896.277V360.188C896.277 360.75 896.149 361.207 895.893 361.56C895.64 361.915 895.3 362.175 894.871 362.339C894.444 362.507 893.97 362.591 893.447 362.591ZM893.413 358.994C893.817 358.994 894.157 358.902 894.436 358.717C894.714 358.533 894.926 358.267 895.071 357.92C895.216 357.574 895.288 357.159 895.288 356.676C895.288 356.205 895.217 355.788 895.075 355.428C894.933 355.067 894.723 354.784 894.444 354.58C894.166 354.375 893.822 354.273 893.413 354.273C892.987 354.273 892.632 354.381 892.348 354.597C892.067 354.812 891.855 355.102 891.713 355.466C891.574 355.83 891.504 356.233 891.504 356.676C891.504 357.131 891.575 357.533 891.717 357.882C891.862 358.229 892.075 358.501 892.356 358.7C892.64 358.896 892.993 358.994 893.413 358.994Z" fill="black"/>
<path d="M29.0504 334.519C28.4083 334.519 27.8615 334.345 27.4098 333.995C26.958 333.643 26.6129 333.133 26.3742 332.465C26.1356 331.795 26.0163 330.985 26.0163 330.036C26.0163 329.093 26.1356 328.288 26.3742 327.62C26.6157 326.95 26.9623 326.438 27.414 326.086C27.8686 325.731 28.414 325.553 29.0504 325.553C29.6867 325.553 30.2308 325.731 30.6825 326.086C31.137 326.438 31.4836 326.95 31.7223 327.62C31.9637 328.288 32.0845 329.093 32.0845 330.036C32.0845 330.985 31.9652 331.795 31.7265 332.465C31.4879 333.133 31.1427 333.643 30.691 333.995C30.2393 334.345 29.6924 334.519 29.0504 334.519ZM29.0504 333.582C29.6867 333.582 30.1811 333.275 30.5333 332.661C30.8856 332.048 31.0617 331.173 31.0617 330.036C31.0617 329.281 30.9808 328.637 30.8188 328.106C30.6598 327.575 30.4296 327.17 30.1285 326.891C29.8302 326.613 29.4708 326.474 29.0504 326.474C28.4197 326.474 27.9268 326.785 27.5717 327.407C27.2166 328.026 27.039 328.903 27.039 330.036C27.039 330.792 27.1186 331.434 27.2777 331.962C27.4367 332.491 27.6654 332.893 27.9637 333.168C28.2649 333.444 28.6271 333.582 29.0504 333.582Z" fill="black"/>
<path d="M27.1205 305.8L31.0239 298.078V298.01H26.5239V297.073H32.1148V298.061L28.2284 305.8H27.1205Z" fill="black"/>
<path d="M23.8929 268.473V277.2H22.8361V269.581H22.785L20.6543 270.995V269.922L22.8361 268.473H23.8929ZM29.1301 277.319C28.6301 277.319 28.1799 277.22 27.7793 277.021C27.3787 276.822 27.0577 276.549 26.8162 276.203C26.5748 275.856 26.4426 275.461 26.4199 275.018H27.4426C27.4824 275.413 27.6614 275.74 27.9796 275.998C28.3006 276.254 28.6841 276.382 29.1301 276.382C29.4881 276.382 29.8063 276.298 30.0847 276.13C30.3659 275.963 30.5861 275.733 30.7452 275.44C30.9071 275.145 30.9881 274.811 30.9881 274.439C30.9881 274.058 30.9043 273.718 30.7367 273.42C30.5719 273.119 30.3446 272.882 30.0549 272.709C29.7651 272.535 29.4341 272.447 29.062 272.444C28.7949 272.441 28.5208 272.483 28.2395 272.568C27.9583 272.65 27.7267 272.757 27.5449 272.888L26.5563 272.768L27.0847 268.473H31.6188V269.41H27.9711L27.6642 271.984H27.7154C27.8944 271.842 28.1188 271.724 28.3887 271.63C28.6586 271.537 28.9398 271.49 29.2324 271.49C29.7665 271.49 30.2424 271.618 30.66 271.873C31.0804 272.126 31.41 272.473 31.6486 272.913C31.8901 273.353 32.0108 273.856 32.0108 274.422C32.0108 274.978 31.8858 275.476 31.6358 275.913C31.3887 276.348 31.0478 276.691 30.6131 276.944C30.1784 277.194 29.6841 277.319 29.1301 277.319Z" fill="black"/>
<path d="M19.1725 248.6V247.833L22.0532 244.68C22.3913 244.31 22.6697 243.989 22.8885 243.716C23.1072 243.441 23.2691 243.182 23.3743 242.941C23.4822 242.697 23.5362 242.441 23.5362 242.174C23.5362 241.867 23.4623 241.601 23.3146 241.377C23.1697 241.153 22.9708 240.979 22.718 240.857C22.4652 240.735 22.1811 240.674 21.8657 240.674C21.5305 240.674 21.2379 240.743 20.9879 240.883C20.7407 241.019 20.549 241.211 20.4126 241.458C20.2791 241.705 20.2123 241.995 20.2123 242.327H19.2066C19.2066 241.816 19.3245 241.367 19.5603 240.981C19.7961 240.594 20.1172 240.293 20.5234 240.077C20.9325 239.861 21.3913 239.753 21.8998 239.753C22.4112 239.753 22.8643 239.861 23.2592 240.077C23.6541 240.293 23.9637 240.584 24.1882 240.951C24.4126 241.317 24.5248 241.725 24.5248 242.174C24.5248 242.495 24.4666 242.809 24.3501 243.116C24.2365 243.42 24.0376 243.759 23.7535 244.134C23.4723 244.506 23.0816 244.961 22.5816 245.498L20.6214 247.594V247.663H24.6782V248.6H19.1725ZM26.4382 248.6V247.833L29.3189 244.68C29.6569 244.31 29.9353 243.989 30.1541 243.716C30.3728 243.441 30.5348 243.182 30.6399 242.941C30.7478 242.697 30.8018 242.441 30.8018 242.174C30.8018 241.867 30.7279 241.601 30.5802 241.377C30.4353 241.153 30.2365 240.979 29.9836 240.857C29.7308 240.735 29.4467 240.674 29.1314 240.674C28.7961 240.674 28.5035 240.743 28.2535 240.883C28.0064 241.019 27.8146 241.211 27.6782 241.458C27.5447 241.705 27.4779 241.995 27.4779 242.327H26.4723C26.4723 241.816 26.5902 241.367 26.826 240.981C27.0618 240.594 27.3828 240.293 27.789 240.077C28.1981 239.861 28.6569 239.753 29.1654 239.753C29.6768 239.753 30.1299 239.861 30.5248 240.077C30.9197 240.293 31.2294 240.584 31.4538 240.951C31.6782 241.317 31.7904 241.725 31.7904 242.174C31.7904 242.495 31.7322 242.809 31.6157 243.116C31.5021 243.42 31.3032 243.759 31.0191 244.134C30.7379 244.506 30.3473 244.961 29.8473 245.498L27.887 247.594V247.663H31.9439V248.6H26.4382Z" fill="black"/>
<path d="M18.9499 220V219.233L21.8306 216.08C22.1686 215.71 22.4471 215.389 22.6658 215.116C22.8846 214.841 23.0465 214.582 23.1516 214.341C23.2596 214.097 23.3135 213.841 23.3135 213.574C23.3135 213.267 23.2397 213.001 23.0919 212.777C22.9471 212.553 22.7482 212.379 22.4953 212.257C22.2425 212.135 21.9584 212.074 21.6431 212.074C21.3078 212.074 21.0152 212.143 20.7652 212.283C20.5181 212.419 20.3263 212.611 20.19 212.858C20.0564 213.105 19.9897 213.395 19.9897 213.727H18.984C18.984 213.216 19.1019 212.767 19.3377 212.381C19.5735 211.994 19.8945 211.693 20.3007 211.477C20.7098 211.261 21.1686 211.153 21.6772 211.153C22.1885 211.153 22.6417 211.261 23.0365 211.477C23.4314 211.693 23.7411 211.984 23.9655 212.351C24.1899 212.717 24.3022 213.125 24.3022 213.574C24.3022 213.895 24.2439 214.209 24.1275 214.516C24.0138 214.82 23.8149 215.159 23.5309 215.534C23.2496 215.906 22.859 216.361 22.359 216.898L20.3988 218.994V219.062H24.4556V220H18.9499ZM28.9939 211.153C29.3519 211.156 29.7098 211.224 30.0678 211.358C30.4257 211.491 30.7525 211.713 31.0479 212.023C31.3434 212.33 31.5806 212.749 31.7596 213.28C31.9385 213.811 32.028 214.477 32.028 215.278C32.028 216.054 31.9542 216.743 31.8064 217.345C31.6615 217.945 31.4513 218.45 31.1757 218.862C30.903 219.274 30.5706 219.587 30.1786 219.8C29.7894 220.013 29.349 220.119 28.8576 220.119C28.3689 220.119 27.9328 220.023 27.5493 219.83C27.1686 219.634 26.8561 219.362 26.6118 219.016C26.3703 218.666 26.2155 218.261 26.1473 217.801H27.1871C27.2809 218.202 27.4669 218.533 27.7453 218.794C28.0266 219.053 28.3973 219.182 28.8576 219.182C29.5309 219.182 30.0621 218.888 30.4513 218.3C30.8434 217.712 31.0394 216.881 31.0394 215.807H30.9712C30.8121 216.045 30.6232 216.251 30.4044 216.425C30.1857 216.598 29.9428 216.732 29.6757 216.825C29.4087 216.919 29.1246 216.966 28.8235 216.966C28.3235 216.966 27.8647 216.842 27.4471 216.595C27.0323 216.345 26.6999 216.003 26.4499 215.568C26.2027 215.131 26.0792 214.631 26.0792 214.068C26.0792 213.534 26.1985 213.045 26.4371 212.602C26.6786 212.156 27.0167 211.801 27.4513 211.537C27.8888 211.273 28.403 211.145 28.9939 211.153ZM28.9939 212.091C28.636 212.091 28.3135 212.18 28.0266 212.359C27.7425 212.536 27.5167 212.774 27.349 213.075C27.1843 213.374 27.1019 213.705 27.1019 214.068C27.1019 214.432 27.1814 214.763 27.3405 215.061C27.5024 215.357 27.7226 215.592 28.001 215.768C28.2823 215.942 28.6019 216.028 28.9598 216.028C29.2297 216.028 29.4811 215.976 29.7141 215.871C29.9471 215.763 30.1502 215.616 30.3235 215.432C30.4996 215.244 30.6374 215.033 30.7368 214.797C30.8363 214.558 30.886 214.31 30.886 214.051C30.886 213.71 30.8036 213.391 30.6388 213.092C30.4769 212.794 30.2525 212.553 29.9655 212.368C29.6814 212.183 29.3576 212.091 28.9939 212.091Z" fill="black"/>
<path d="M22.1566 191.519C21.5941 191.519 21.0926 191.423 20.6523 191.23C20.2148 191.036 19.8668 190.768 19.6083 190.424C19.3526 190.078 19.2134 189.676 19.1907 189.218H20.2645C20.2873 189.499 20.3838 189.742 20.5543 189.947C20.7248 190.149 20.9478 190.305 21.2233 190.416C21.4989 190.526 21.8043 190.582 22.1395 190.582C22.5145 190.582 22.8469 190.516 23.1367 190.386C23.4265 190.255 23.6537 190.073 23.8185 189.84C23.9833 189.607 24.0657 189.337 24.0657 189.031C24.0657 188.71 23.9861 188.427 23.827 188.183C23.6679 187.936 23.435 187.742 23.1282 187.603C22.8213 187.464 22.4463 187.394 22.0032 187.394H21.3043V186.457H22.0032C22.3498 186.457 22.6537 186.394 22.9151 186.269C23.1793 186.144 23.3853 185.968 23.533 185.741C23.6836 185.514 23.7588 185.247 23.7588 184.94C23.7588 184.644 23.6935 184.387 23.5628 184.168C23.4321 183.95 23.2475 183.779 23.0088 183.657C22.773 183.535 22.4946 183.474 22.1736 183.474C21.8725 183.474 21.5884 183.529 21.3213 183.64C21.0571 183.748 20.8412 183.906 20.6736 184.113C20.506 184.318 20.4151 184.565 20.4009 184.855H19.3782C19.3952 184.397 19.533 183.997 19.7915 183.653C20.05 183.306 20.3881 183.036 20.8057 182.843C21.2262 182.65 21.6878 182.553 22.1907 182.553C22.7304 182.553 23.1935 182.663 23.5799 182.882C23.9662 183.097 24.2631 183.383 24.4705 183.738C24.6779 184.093 24.7816 184.477 24.7816 184.889C24.7816 185.38 24.6523 185.799 24.3938 186.146C24.1381 186.492 23.7901 186.732 23.3498 186.866V186.934C23.9009 187.025 24.3313 187.259 24.6409 187.637C24.9506 188.012 25.1054 188.477 25.1054 189.031C25.1054 189.505 24.9762 189.931 24.7176 190.309C24.462 190.684 24.1125 190.98 23.6694 191.195C23.2262 191.411 22.7219 191.519 22.1566 191.519ZM27.1211 191.4L31.0245 183.678V183.61H26.5245V182.673H32.1154V183.661L28.229 191.4H27.1211Z" fill="black"/>
<path d="M18.1004 161.01V160.141L21.9356 154.073H22.5663V155.419H22.1402L19.2424 160.005V160.073H24.4072V161.01H18.1004ZM22.2084 162.8V160.746V160.341V154.073H23.214V162.8H22.2084ZM25.7996 161.01V160.141L29.6348 154.073H30.2655V155.419H29.8394L26.9417 160.005V160.073H32.1064V161.01H25.7996ZM29.9076 162.8V160.746V160.341V154.073H30.9133V162.8H29.9076Z" fill="black"/>
<path d="M23.552 134.319C23.052 134.319 22.6017 134.22 22.2012 134.021C21.8006 133.822 21.4796 133.549 21.2381 133.203C20.9966 132.856 20.8645 132.461 20.8418 132.018H21.8645C21.9043 132.413 22.0833 132.74 22.4015 132.998C22.7225 133.254 23.106 133.382 23.552 133.382C23.91 133.382 24.2282 133.298 24.5066 133.13C24.7878 132.963 25.008 132.733 25.1671 132.44C25.329 132.145 25.41 131.811 25.41 131.439C25.41 131.058 25.3262 130.718 25.1586 130.42C24.9938 130.119 24.7665 129.882 24.4767 129.709C24.187 129.535 23.856 129.447 23.4838 129.444C23.2168 129.441 22.9426 129.483 22.6614 129.568C22.3801 129.65 22.1486 129.757 21.9668 129.887L20.9782 129.768L21.5066 125.473H26.0407V126.41H22.3929L22.0861 128.984H22.1373C22.3162 128.842 22.5407 128.724 22.8105 128.63C23.0804 128.537 23.3617 128.49 23.6543 128.49C24.1884 128.49 24.6642 128.618 25.0819 128.873C25.5023 129.126 25.8319 129.473 26.0705 129.913C26.312 130.353 26.4327 130.856 26.4327 131.422C26.4327 131.978 26.3077 132.476 26.0577 132.913C25.8105 133.348 25.4696 133.691 25.035 133.944C24.6003 134.194 24.106 134.319 23.552 134.319ZM31.1937 125.473V134.2H30.1369V126.581H30.0858L27.9551 127.995V126.922L30.1369 125.473H31.1937Z" fill="black"/>
<path d="M21.7358 105.719C21.2358 105.719 20.7855 105.62 20.3849 105.421C19.9843 105.222 19.6633 104.949 19.4218 104.603C19.1804 104.256 19.0483 103.861 19.0255 103.418H20.0483C20.088 103.813 20.267 104.14 20.5852 104.398C20.9062 104.654 21.2897 104.782 21.7358 104.782C22.0937 104.782 22.4119 104.698 22.6903 104.53C22.9716 104.363 23.1917 104.133 23.3508 103.84C23.5127 103.545 23.5937 103.211 23.5937 102.839C23.5937 102.458 23.5099 102.118 23.3423 101.82C23.1775 101.519 22.9502 101.282 22.6605 101.109C22.3707 100.935 22.0397 100.847 21.6676 100.844C21.4005 100.841 21.1264 100.883 20.8451 100.968C20.5639 101.05 20.3324 101.157 20.1505 101.287L19.1619 101.168L19.6903 96.8727H24.2244V97.8102H20.5767L20.2699 100.384H20.321C20.5 100.242 20.7244 100.124 20.9943 100.03C21.2642 99.9366 21.5454 99.8898 21.838 99.8898C22.3721 99.8898 22.848 100.018 23.2656 100.273C23.686 100.526 24.0156 100.873 24.2542 101.313C24.4957 101.753 24.6164 102.256 24.6164 102.822C24.6164 103.378 24.4914 103.876 24.2414 104.313C23.9943 104.748 23.6534 105.091 23.2187 105.344C22.7841 105.594 22.2897 105.719 21.7358 105.719ZM29.1047 105.719C28.5195 105.719 28.0024 105.616 27.5536 105.408C27.1076 105.198 26.7596 104.91 26.5096 104.543C26.2596 104.174 26.136 103.753 26.1388 103.282C26.136 102.912 26.2084 102.572 26.3561 102.259C26.5039 101.944 26.7056 101.681 26.9613 101.471C27.2198 101.258 27.5081 101.123 27.8263 101.066V101.015C27.4087 100.907 27.0763 100.672 26.8292 100.312C26.582 99.948 26.4598 99.5347 26.4627 99.0716C26.4598 98.6284 26.5721 98.2321 26.7993 97.8827C27.0266 97.5332 27.3391 97.2577 27.7368 97.056C28.1374 96.8543 28.5934 96.7534 29.1047 96.7534C29.6104 96.7534 30.0621 96.8543 30.4598 97.056C30.8576 97.2577 31.1701 97.5332 31.3973 97.8827C31.6275 98.2321 31.7439 98.6284 31.7468 99.0716C31.7439 99.5347 31.6175 99.948 31.3675 100.312C31.1203 100.672 30.7922 100.907 30.3831 101.015V101.066C30.6985 101.123 30.9826 101.258 31.2354 101.471C31.4882 101.681 31.6899 101.944 31.8405 102.259C31.9911 102.572 32.0678 102.912 32.0706 103.282C32.0678 103.753 31.9399 104.174 31.6871 104.543C31.4371 104.91 31.0891 105.198 30.6431 105.408C30.1999 105.616 29.6871 105.719 29.1047 105.719ZM29.1047 104.782C29.4996 104.782 29.8405 104.718 30.1274 104.59C30.4144 104.462 30.636 104.282 30.7922 104.049C30.9485 103.816 31.028 103.543 31.0309 103.231C31.028 102.901 30.9428 102.61 30.7752 102.357C30.6076 102.104 30.3789 101.905 30.0891 101.761C29.8022 101.616 29.474 101.543 29.1047 101.543C28.7326 101.543 28.4002 101.616 28.1076 101.761C27.8178 101.905 27.5891 102.104 27.4215 102.357C27.2567 102.61 27.1757 102.901 27.1786 103.231C27.1757 103.543 27.251 103.816 27.4044 104.049C27.5607 104.282 27.7837 104.462 28.0735 104.59C28.3632 104.718 28.707 104.782 29.1047 104.782ZM29.1047 100.64C29.4172 100.64 29.6942 100.577 29.9357 100.452C30.18 100.327 30.3718 100.153 30.511 99.9281C30.6502 99.7037 30.7212 99.4409 30.724 99.1398C30.7212 98.8443 30.6516 98.5872 30.5152 98.3685C30.3789 98.1469 30.19 97.9764 29.9485 97.8571C29.707 97.7349 29.4257 97.6739 29.1047 97.6739C28.778 97.6739 28.4925 97.7349 28.2482 97.8571C28.0039 97.9764 27.8149 98.1469 27.6814 98.3685C27.5479 98.5872 27.4826 98.8443 27.4854 99.1398C27.4826 99.4409 27.5493 99.7037 27.6857 99.9281C27.8249 100.153 28.0167 100.327 28.261 100.452C28.5053 100.577 28.7865 100.64 29.1047 100.64Z" fill="black"/>
<path d="M21.625 77.1193C21.267 77.1136 20.9091 77.0455 20.5511 76.9148C20.1931 76.7841 19.8664 76.5639 19.571 76.2543C19.2755 75.9418 19.0383 75.5199 18.8593 74.9886C18.6804 74.4545 18.5909 73.7841 18.5909 72.9773C18.5909 72.2045 18.6633 71.5199 18.8082 70.9233C18.9531 70.3239 19.1633 69.8196 19.4389 69.4105C19.7145 68.9986 20.0468 68.6861 20.436 68.473C20.8281 68.2599 21.2699 68.1534 21.7613 68.1534C22.25 68.1534 22.6846 68.2514 23.0653 68.4474C23.4488 68.6406 23.7613 68.9105 24.0028 69.2571C24.2443 69.6037 24.4005 70.0028 24.4716 70.4545H23.4318C23.3352 70.0625 23.1477 69.7372 22.8693 69.4787C22.5909 69.2202 22.2216 69.0909 21.7613 69.0909C21.0852 69.0909 20.5525 69.3849 20.1633 69.973C19.777 70.5611 19.5824 71.3864 19.5795 72.4489H19.6477C19.8068 72.2074 19.9957 72.0014 20.2145 71.831C20.436 71.6577 20.6804 71.5241 20.9474 71.4304C21.2145 71.3366 21.4971 71.2898 21.7954 71.2898C22.2954 71.2898 22.7528 71.4148 23.1676 71.6648C23.5824 71.9119 23.9147 72.2543 24.1647 72.6918C24.4147 73.1264 24.5397 73.625 24.5397 74.1875C24.5397 74.7273 24.419 75.2216 24.1775 75.6705C23.936 76.1165 23.5966 76.4716 23.1591 76.7358C22.7244 76.9972 22.213 77.125 21.625 77.1193ZM21.625 76.1818C21.9829 76.1818 22.3039 76.0923 22.588 75.9134C22.875 75.7344 23.1008 75.4943 23.2656 75.1932C23.4332 74.892 23.517 74.5568 23.517 74.1875C23.517 73.8267 23.436 73.4986 23.2741 73.2031C23.115 72.9048 22.8949 72.6676 22.6136 72.4915C22.3352 72.3153 22.017 72.2273 21.6591 72.2273C21.3892 72.2273 21.1377 72.2812 20.9048 72.3892C20.6718 72.4943 20.4673 72.6392 20.2912 72.8239C20.1179 73.0085 19.9815 73.2202 19.8821 73.4588C19.7826 73.6946 19.7329 73.9432 19.7329 74.2045C19.7329 74.5511 19.8139 74.875 19.9758 75.1761C20.1406 75.4773 20.365 75.7202 20.6491 75.9048C20.936 76.0895 21.2613 76.1818 21.625 76.1818ZM29.1132 77.1193C28.7553 77.1136 28.3973 77.0455 28.0394 76.9148C27.6814 76.7841 27.3547 76.5639 27.0593 76.2543C26.7638 75.9418 26.5266 75.5199 26.3476 74.9886C26.1686 74.4545 26.0792 73.7841 26.0792 72.9773C26.0792 72.2045 26.1516 71.5199 26.2965 70.9233C26.4414 70.3239 26.6516 69.8196 26.9272 69.4105C27.2027 68.9986 27.5351 68.6861 27.9243 68.473C28.3164 68.2599 28.7581 68.1534 29.2496 68.1534C29.7382 68.1534 30.1729 68.2514 30.5536 68.4474C30.9371 68.6406 31.2496 68.9105 31.4911 69.2571C31.7326 69.6037 31.8888 70.0028 31.9598 70.4545H30.9201C30.8235 70.0625 30.636 69.7372 30.3576 69.4787C30.0792 69.2202 29.7098 69.0909 29.2496 69.0909C28.5735 69.0909 28.0408 69.3849 27.6516 69.973C27.2652 70.5611 27.0706 71.3864 27.0678 72.4489H27.136C27.2951 72.2074 27.484 72.0014 27.7027 71.831C27.9243 71.6577 28.1686 71.5241 28.4357 71.4304C28.7027 71.3366 28.9854 71.2898 29.2837 71.2898C29.7837 71.2898 30.2411 71.4148 30.6559 71.6648C31.0706 71.9119 31.403 72.2543 31.653 72.6918C31.903 73.1264 32.028 73.625 32.028 74.1875C32.028 74.7273 31.9073 75.2216 31.6658 75.6705C31.4243 76.1165 31.0848 76.4716 30.6473 76.7358C30.2127 76.9972 29.7013 77.125 29.1132 77.1193ZM29.1132 76.1818C29.4712 76.1818 29.7922 76.0923 30.0763 75.9134C30.3632 75.7344 30.5891 75.4943 30.7539 75.1932C30.9215 74.892 31.0053 74.5568 31.0053 74.1875C31.0053 73.8267 30.9243 73.4986 30.7624 73.2031C30.6033 72.9048 30.3831 72.6676 30.1019 72.4915C29.8235 72.3153 29.5053 72.2273 29.1473 72.2273C28.8775 72.2273 28.626 72.2812 28.3931 72.3892C28.1601 72.4943 27.9556 72.6392 27.7794 72.8239C27.6061 73.0085 27.4698 73.2202 27.3703 73.4588C27.2709 73.6946 27.2212 73.9432 27.2212 74.2045C27.2212 74.5511 27.3022 74.875 27.4641 75.1761C27.6289 75.4773 27.8533 75.7202 28.1374 75.9048C28.4243 76.0895 28.7496 76.1818 29.1132 76.1818Z" fill="black"/>
<path d="M19.6797 48.4L23.5831 40.6784V40.6102H19.0831V39.6727H24.674V40.6614L20.7876 48.4H19.6797ZM29.012 48.5193C28.4495 48.5193 27.9481 48.4227 27.5078 48.2295C27.0703 48.0364 26.7223 47.7679 26.4637 47.4241C26.2081 47.0776 26.0689 46.6756 26.0461 46.2182H27.12C27.1427 46.4994 27.2393 46.7423 27.4098 46.9469C27.5802 47.1486 27.8032 47.3048 28.0788 47.4156C28.3544 47.5264 28.6598 47.5818 28.995 47.5818C29.37 47.5818 29.7024 47.5165 29.9922 47.3858C30.2819 47.2551 30.5092 47.0733 30.674 46.8403C30.8387 46.6074 30.9211 46.3375 30.9211 46.0307C30.9211 45.7097 30.8416 45.427 30.6825 45.1827C30.5234 44.9355 30.2904 44.7423 29.9836 44.6031C29.6768 44.4639 29.3018 44.3943 28.8586 44.3943H28.1598V43.4568H28.8586C29.2052 43.4568 29.5092 43.3943 29.7706 43.2693C30.0348 43.1443 30.2407 42.9682 30.3885 42.7409C30.539 42.5136 30.6143 42.2466 30.6143 41.9398C30.6143 41.6443 30.549 41.3872 30.4183 41.1685C30.2876 40.9497 30.1029 40.7793 29.8643 40.6571C29.6285 40.5349 29.3501 40.4739 29.0291 40.4739C28.7279 40.4739 28.4439 40.5293 28.1768 40.6401C27.9126 40.748 27.6967 40.9057 27.5291 41.1131C27.3615 41.3176 27.2706 41.5648 27.2564 41.8545H26.2336C26.2507 41.3972 26.3885 40.9966 26.647 40.6528C26.9055 40.3063 27.2436 40.0364 27.6612 39.8432C28.0816 39.65 28.5433 39.5534 29.0461 39.5534C29.5859 39.5534 30.049 39.6628 30.4353 39.8815C30.8217 40.0974 31.1186 40.383 31.326 40.7381C31.5333 41.0932 31.637 41.4767 31.637 41.8886C31.637 42.3801 31.5078 42.7991 31.2493 43.1457C30.9936 43.4923 30.6456 43.7324 30.2052 43.8659V43.9341C30.7564 44.025 31.1868 44.2594 31.4964 44.6372C31.8061 45.0122 31.9609 45.4767 31.9609 46.0307C31.9609 46.5051 31.8316 46.9313 31.5731 47.3091C31.3174 47.6841 30.968 47.9795 30.5248 48.1955C30.0816 48.4114 29.5774 48.5193 29.012 48.5193Z" fill="black"/>
</svg>
