<svg width="40" height="40" viewBox="0 0 40 40" fill="none" xmlns="http://www.w3.org/2000/svg">
<path d="M34.7754 14.2194H21.9316C21.6001 14.2194 21.2822 14.351 21.0478 14.5855C20.8133 14.8199 20.6816 15.1378 20.6816 15.4694V34.7319C20.6826 35.063 20.8146 35.3804 21.0488 35.6146C21.2831 35.8489 21.6005 35.9809 21.9316 35.9819H34.7754C35.1066 35.9809 35.424 35.8489 35.6582 35.6146C35.8924 35.3804 36.0244 35.063 36.0254 34.7319V15.4694C36.0254 15.1378 35.8937 14.8199 35.6593 14.5855C35.4248 14.351 35.1069 14.2194 34.7754 14.2194Z" fill="#999999"/>
<path d="M34.7754 3.51685H21.9316C21.6001 3.51685 21.2822 3.64855 21.0478 3.88296C20.8133 4.11738 20.6816 4.43533 20.6816 4.76685V11.1856C20.6826 11.5168 20.8146 11.8342 21.0488 12.0684C21.2831 12.3026 21.6005 12.4346 21.9316 12.4356H34.7754C35.1066 12.4346 35.424 12.3026 35.6582 12.0684C35.8924 11.8342 36.0244 11.5168 36.0254 11.1856V4.76685C36.0254 4.43533 35.8937 4.11738 35.6593 3.88296C35.4248 3.64855 35.1069 3.51685 34.7754 3.51685Z" fill="#D94F72"/>
<path d="M17.65 22.7819H4.8125C4.12214 22.7819 3.5625 23.3415 3.5625 24.0319V34.7319C3.5625 35.4222 4.12214 35.9819 4.8125 35.9819H17.65C18.3404 35.9819 18.9 35.4222 18.9 34.7319V24.0319C18.9 23.3415 18.3404 22.7819 17.65 22.7819Z" fill="#D94F72"/>
<path d="M17.65 3.51685H4.81251C4.6482 3.51627 4.48538 3.54821 4.33346 3.61083C4.18155 3.67344 4.04352 3.76548 3.92733 3.88167C3.81114 3.99786 3.71908 4.13588 3.65646 4.2878C3.59385 4.43972 3.56193 4.60253 3.56251 4.76685V19.7231C3.56251 20.0546 3.69421 20.3726 3.92863 20.607C4.16305 20.8414 4.48099 20.9731 4.81251 20.9731H17.65C17.9815 20.9731 18.2994 20.8414 18.5339 20.607C18.7683 20.3726 18.9 20.0546 18.9 19.7231V4.76685C18.9006 4.60253 18.8686 4.43972 18.806 4.2878C18.7434 4.13588 18.6514 3.99786 18.5352 3.88167C18.419 3.76548 18.2809 3.67344 18.1291 3.61083C17.9771 3.54821 17.8143 3.51627 17.65 3.51685Z" fill="#999999"/>
</svg>
