<svg width="60" height="60" viewBox="0 0 60 60" fill="none" xmlns="http://www.w3.org/2000/svg">
<path fill-rule="evenodd" clip-rule="evenodd" d="M40.2518 33.3975L41.3905 32.2655C42.9645 30.7002 45.418 30.3787 47.432 31.4735L52.2083 34.07C55.2755 35.7372 55.9515 39.8237 53.5542 42.2075L50.0028 45.7385C49.0998 46.6365 47.9792 47.2927 46.6908 47.4127C43.7103 47.6907 37.5782 47.5407 30.3435 43.3057L40.2518 33.3975ZM25.4767 18.7064L26.1937 17.9934C27.9602 16.2371 28.1267 13.4173 26.5855 11.3587L23.4331 7.14769C21.5257 4.59979 17.8399 4.26322 15.6536 6.43707L11.7296 10.3388C10.6456 11.4167 9.91912 12.814 10.0072 14.364C10.169 17.2111 11.1395 22.4122 15.3794 28.8037L25.4767 18.7064Z" fill="#1C274C"/>
<path opacity="0.6" d="M30.1568 28.7428C22.7924 21.4201 25.459 18.7228 25.4757 18.7061L15.3784 28.8035C17.0439 31.314 19.2139 34.0085 22.0374 36.816C24.8867 39.649 27.6888 41.752 30.3425 43.3055L40.2507 33.3973C40.2507 33.3973 37.5443 36.0883 30.1568 28.7428Z" fill="#1C274C"/>
</svg>
