<svg width="41" height="41" viewBox="0 0 41 41" fill="none" xmlns="http://www.w3.org/2000/svg">
<g clip-path="url(#clip0_3770_580)">
<path d="M33.1826 37.5195C35.944 37.5195 38.1826 35.281 38.1826 32.5195C38.1826 29.7581 35.944 27.5195 33.1826 27.5195C30.4212 27.5195 28.1826 29.7581 28.1826 32.5195C28.1826 35.281 30.4212 37.5195 33.1826 37.5195Z" fill="black"/>
<path d="M15.6826 16.2695H13.1826V18.7695H15.6826V16.2695Z" fill="black"/>
<path d="M15.6826 22.5195H13.1826V25.0195H15.6826V22.5195Z" fill="black"/>
<path d="M15.6826 28.7695H13.1826V31.2695H15.6826V28.7695Z" fill="black"/>
<path d="M28.1826 16.2695H18.1826V18.7695H28.1826V16.2695Z" fill="black"/>
<path d="M28.1826 22.5195H18.1826V25.0195H28.1826V22.5195Z" fill="black"/>
<path d="M23.1827 28.7695H18.1826V31.2695H23.1827V28.7695Z" fill="black"/>
<path d="M9.43262 35.0195V8.76953H13.1826V12.5195H28.1826V8.76953H31.9326V22.5195H34.4326V8.76953C34.4326 8.10649 34.1692 7.4706 33.7004 7.00176C33.2315 6.53292 32.5957 6.26953 31.9326 6.26953H28.1826V5.01953C28.1826 4.35649 27.9192 3.72061 27.4504 3.25176C26.9815 2.78292 26.3457 2.51953 25.6826 2.51953H15.6826C15.0196 2.51953 14.3837 2.78292 13.9149 3.25176C13.446 3.72061 13.1826 4.35649 13.1826 5.01953V6.26953H9.43262C8.76958 6.26953 8.13369 6.53292 7.66485 7.00176C7.19601 7.4706 6.93262 8.10649 6.93262 8.76953V35.0195C6.93262 35.6826 7.19601 36.3185 7.66485 36.7873C8.13369 37.2561 8.76958 37.5195 9.43262 37.5195H23.1826V35.0195H9.43262ZM15.6826 5.01953H25.6826V10.0195H15.6826V5.01953Z" fill="black"/>
</g>
<defs>
<clipPath id="clip0_3770_580">
<rect width="40" height="40" fill="white" transform="translate(0.682617 0.0195312)"/>
</clipPath>
</defs>
</svg>
