<svg width="41" height="41" viewBox="0 0 41 41" fill="none" xmlns="http://www.w3.org/2000/svg">
<path d="M28.1822 11.2695H33.3022C33.6119 11.2698 33.9104 11.3851 34.14 11.5929C34.3695 11.8008 34.5138 12.0864 34.5447 12.3945L35.3072 20.0195H32.7922L32.1672 13.7695H28.1822V17.5195C28.1822 17.8511 28.0505 18.169 27.8161 18.4034C27.5817 18.6378 27.2638 18.7695 26.9322 18.7695C26.6007 18.7695 26.2828 18.6378 26.0484 18.4034C25.8139 18.169 25.6822 17.8511 25.6822 17.5195V13.7695H15.6822V17.5195C15.6822 17.8511 15.5505 18.169 15.3161 18.4034C15.0817 18.6378 14.7638 18.7695 14.4322 18.7695C14.1007 18.7695 13.7828 18.6378 13.5484 18.4034C13.3139 18.169 13.1822 17.8511 13.1822 17.5195V13.7695H9.19474L7.19474 33.7695H20.6822V36.2695H5.81224C5.63765 36.2694 5.46503 36.2326 5.30551 36.1617C5.14599 36.0907 5.00309 35.9871 4.88604 35.8576C4.76898 35.7281 4.68036 35.5754 4.62589 35.4096C4.57141 35.2437 4.55228 35.0682 4.56974 34.8945L6.81974 12.3945C6.85071 12.0864 6.99494 11.8008 7.22449 11.5929C7.45405 11.3851 7.75258 11.2698 8.06224 11.2695H13.1822V10.397C13.1822 6.06203 16.5222 2.51953 20.6822 2.51953C24.8422 2.51953 28.1822 6.06203 28.1822 10.397V11.272V11.2695ZM25.6822 11.2695V10.397C25.6822 7.41203 23.4272 5.01953 20.6822 5.01953C17.9372 5.01953 15.6822 7.41203 15.6822 10.397V11.272H25.6822V11.2695ZM33.5497 30.1695L30.6822 27.3045V36.2695C30.6822 36.6011 30.5505 36.919 30.3161 37.1534C30.0817 37.3878 29.7638 37.5195 29.4322 37.5195C29.1007 37.5195 28.7828 37.3878 28.5484 37.1534C28.3139 36.919 28.1822 36.6011 28.1822 36.2695V27.3045L25.3172 30.1695C25.2019 30.2889 25.064 30.3841 24.9115 30.4497C24.759 30.5152 24.595 30.5497 24.429 30.5511C24.263 30.5525 24.0984 30.5209 23.9448 30.4581C23.7912 30.3952 23.6516 30.3024 23.5342 30.185C23.4169 30.0677 23.3241 29.9281 23.2612 29.7745C23.1984 29.6209 23.1667 29.4563 23.1682 29.2903C23.1696 29.1243 23.2041 28.9603 23.2696 28.8078C23.3351 28.6553 23.4304 28.5173 23.5497 28.402L28.5497 23.402C28.7842 23.1677 29.102 23.036 29.4335 23.036C29.7649 23.036 30.0828 23.1677 30.3172 23.402L35.3172 28.402C35.4366 28.5173 35.5319 28.6553 35.5974 28.8078C35.6629 28.9603 35.6974 29.1243 35.6988 29.2903C35.7002 29.4563 35.6686 29.6209 35.6058 29.7745C35.5429 29.9281 35.4501 30.0677 35.3327 30.185C35.2154 30.3024 35.0758 30.3952 34.9222 30.4581C34.7686 30.5209 34.604 30.5525 34.438 30.5511C34.272 30.5497 34.108 30.5152 33.9555 30.4497C33.803 30.3841 33.6651 30.2889 33.5497 30.1695Z" fill="black"/>
</svg>
