<svg width="47" height="47" viewBox="0 0 47 47" fill="none" xmlns="http://www.w3.org/2000/svg">
<path opacity="0.4" d="M23.7365 25.0275C23.5994 25.0079 23.4231 25.0079 23.2665 25.0275C19.8198 24.91 17.0781 22.09 17.0781 18.6237C17.0781 15.0791 19.9373 12.2004 23.5015 12.2004C27.046 12.2004 29.9248 15.0791 29.9248 18.6237C29.9052 22.09 27.1831 24.91 23.7365 25.0275Z" stroke="white" stroke-width="3.75" stroke-linecap="round" stroke-linejoin="round"/>
<path opacity="0.34" d="M36.6992 37.9527C33.2133 41.1448 28.5917 43.0835 23.5 43.0835C18.4083 43.0835 13.7866 41.1448 10.3008 37.9527C10.4966 36.1119 11.6716 34.3102 13.767 32.9002C19.1329 29.336 27.9063 29.336 33.2329 32.9002C35.3283 34.3102 36.5033 36.1119 36.6992 37.9527Z" stroke="white" stroke-width="3.75" stroke-linecap="round" stroke-linejoin="round"/>
<path d="M23.5003 43.0833C34.3158 43.0833 43.0837 34.3155 43.0837 23.5C43.0837 12.6844 34.3158 3.91666 23.5003 3.91666C12.6847 3.91666 3.91699 12.6844 3.91699 23.5C3.91699 34.3155 12.6847 43.0833 23.5003 43.0833Z" stroke="white" stroke-width="3.75" stroke-linecap="round" stroke-linejoin="round"/>
</svg>
