<svg width="60" height="60" viewBox="0 0 60 60" fill="none" xmlns="http://www.w3.org/2000/svg">
<path d="M31.875 0C16.3125 0 3.75 12.5625 3.75 28.125C3.75 34.5 5.8125 40.5 9.75 45.375L5.8125 57.375C5.625 58.125 5.8125 58.875 6.375 59.4375C6.5625 59.8125 7.125 60 7.5 60C7.6875 60 8.0625 60 8.25 59.8125L21.1875 54C24.5625 55.5 28.125 56.25 31.875 56.25C47.4375 56.25 60 43.6875 60 28.125C60 12.5625 47.4375 0 31.875 0Z" fill="#25D366"/>
<path d="M47.3125 40.3125C46.5625 42.5625 43.75 44.4375 41.3125 44.8125C40.75 45 40.1875 45 39.4375 45C37.9375 45 35.6875 44.625 31.75 42.9375C27.25 41.0625 22.75 37.125 19.1875 32.0625V31.875C18.0625 30.1875 16 27 16 23.625C16 19.5 18.0625 17.4375 18.8125 16.5C19.75 15.5625 21.0625 15 22.5625 15C22.9375 15 23.125 15 23.5 15C24.8125 15 25.75 15.375 26.6875 17.25L27.4375 18.75C28 20.25 28.75 21.9375 28.9375 22.125C29.5 23.25 29.5 24.1875 28.9375 25.125C28.75 25.6875 28.375 26.0625 28 26.4375C27.8125 26.8125 27.625 27 27.4375 27C27.25 27.1875 27.25 27.1875 27.0625 27.375C27.625 28.3125 28.75 30 30.25 31.3125C32.5 33.375 34.1875 33.9375 35.125 34.3125C35.5 33.9375 35.875 33.1875 36.4375 32.625L36.625 32.25C37.5625 30.9375 39.0625 30.5625 40.5625 31.125C41.3125 31.5 45.4375 33.375 45.4375 33.375L45.8125 33.5625C46.375 33.9375 47.125 34.125 47.5 34.875C48.25 36.5625 47.6875 39 47.3125 40.3125Z" fill="white"/>
</svg>
