<svg width="41" height="41" viewBox="0 0 41 41" fill="none" xmlns="http://www.w3.org/2000/svg">
<path fill-rule="evenodd" clip-rule="evenodd" d="M39.0163 6.6862C39.0163 3.92479 36.7778 1.6862 34.0163 1.6862H7.34961C4.58819 1.6862 2.34961 3.92479 2.34961 6.6862V23.3529C2.34961 26.1144 4.58819 28.3529 7.34961 28.3529H9.01628C9.93674 28.3529 10.6829 27.6067 10.6829 26.6862C10.6829 25.7657 9.93674 25.0195 9.01628 25.0195H7.34961C6.42914 25.0195 5.68294 24.2734 5.68294 23.3529V13.3529H35.6829V23.3529C35.6829 24.2734 34.9368 25.0195 34.0163 25.0195H32.3496C31.4291 25.0195 30.6829 25.7657 30.6829 26.6862C30.6829 27.6067 31.4291 28.3529 32.3496 28.3529H34.0163C36.7778 28.3529 39.0163 26.1144 39.0163 23.3529V6.6862ZM35.6829 10.0195V6.6862C35.6829 5.76574 34.9368 5.01954 34.0163 5.01954H7.34961C6.42914 5.01954 5.68294 5.76572 5.68294 6.6862V10.0195H35.6829Z" fill="#0F0F0F"/>
<path d="M22.3489 36.6862C22.3489 37.6067 21.6028 38.3529 20.6823 38.3529C19.7618 38.3529 19.0156 37.6067 19.0156 36.6862V27.3644L16.8608 29.5189C16.2099 30.17 15.1547 30.17 14.5037 29.5189C13.8529 28.8684 13.8529 27.8129 14.5037 27.1622L19.5029 22.1734C20.1539 21.5235 21.2083 21.5242 21.8588 22.1745L26.8573 27.1732C27.5083 27.8242 27.5083 28.8794 26.8573 29.5304C26.2064 30.181 25.1511 30.181 24.5003 29.5304L22.3489 27.379V36.6862Z" fill="#0F0F0F"/>
</svg>
